GIL11_xslow1_RRA_states
nRows=4
nColumns=47

# SIMM Motion File Header:
name GIL11_xslow1_RRA_states
datacolumns 47
datarows 4
otherdata 1
range 1.30082999999996750000 1.30232999999996730000
endheader
time	pelvis_tx	pelvis_ty	pelvis_tz	pelvis_tilt	pelvis_list	pelvis_rotation	hip_flexion_r	hip_adduction_r	hip_rotation_r	knee_angle_r	ankle_angle_r	subtalar_angle_r	mtp_angle_r	hip_flexion_l	hip_adduction_l	hip_rotation_l	knee_angle_l	ankle_angle_l	subtalar_angle_l	mtp_angle_l	lumbar_extension	lumbar_bending	lumbar_rotation	pelvis_tx_u	pelvis_ty_u	pelvis_tz_u	pelvis_tilt_u	pelvis_list_u	pelvis_rotation_u	hip_flexion_r_u	hip_adduction_r_u	hip_rotation_r_u	knee_angle_r_u	ankle_angle_r_u	subtalar_angle_r_u	mtp_angle_r_u	hip_flexion_l_u	hip_adduction_l_u	hip_rotation_l_u	knee_angle_l_u	ankle_angle_l_u	subtalar_angle_l_u	mtp_angle_l_u	lumbar_extension_u	lumbar_bending_u	lumbar_rotation_u
      1.30082999999996750000	      0.75628747240677452000	      0.88507231626228422000	     -0.26074734696627033000	     -4.63348666524755700000	      0.67278747251761761000	      2.24708382740575050000	      5.57903198469428130000	      3.24421320941223670000	      3.12362487480406380000	     -2.54625882790985970000	      3.34921321386674450000	      0.00000000000001677954	      0.00000000000019617295	     19.02741289519173400000	     -3.86874352594828120000	     11.41817029273196700000	    -47.48965354154056900000	      3.27219162040944230000	     -0.00000000000084616548	      0.00000000000024152827	     -3.03975306920789070000	     -1.18384547971878740000	      3.19708253005176560000	      0.38935572301259652000	      0.00213460148752163790	      0.05030190883007742300	     -9.64770371227264970000	     20.97419983011744500000	     -9.22360822163840770000	    -15.20354995149792100000	    -10.75628348749740800000	     -8.42929478499310390000	    -17.35831648994933100000	     32.53122913820375600000	     -0.00000000000015282547	      0.00000000000150539515	     77.16603146534407600000	     30.76864122681866600000	     57.86486557444265300000	    156.17041741048331000000	     68.35325174910954600000	     -0.00000000000132475293	      0.00000000000027257324	     -3.38071498818983680000	    -26.32022417483701600000	      7.71840517267403660000
      1.30132999999996750000	      0.75648215733370994000	      0.88507333413568445000	     -0.26072221531563861000	     -4.63831835778450860000	      0.68325960211416126000	      2.24244965823955900000	      5.57143444611168360000	      3.23884741588130480000	      3.11945347507548560000	     -2.55493336141364140000	      3.36547408127562250000	      0.00000000000001670102	      0.00000000000019693456	     19.06592790275031400000	     -3.85338450304197890000	     11.44710418463574600000	    -47.41131063504320100000	      3.30620613285015260000	     -0.00000000000084682767	      0.00000000000024166385	     -3.04143400642496210000	     -1.19698432253458840000	      3.20092459065273080000	      0.38938448488167426000	      0.00193689756413251600	      0.05022381339804549100	     -9.67880077118192440000	     20.91435606522764700000	     -9.31328396115019610000	    -15.18705189236157000000	    -10.70701693691308200000	     -8.25624858406841610000	    -17.33946102856836900000	     32.51196970351181600000	     -0.00000000000016248690	      0.00000000000155651133	     76.89387538541670600000	     30.66725118238115000000	     57.86891127234179800000	    157.20000410303274000000	     67.70474289694050200000	     -0.00000000000132399910	      0.00000000000027088632	     -3.34323305163036010000	    -26.23489613413554600000	      7.65016843573674790000
      1.30182999999996740000	      0.75667685739453472000	      0.88507425316911992000	     -0.26069712404138856000	     -4.64316519752924690000	      0.69370186386418731000	      2.23777032920935120000	      5.56384448300724980000	      3.23350606710391290000	      3.11536867333184690000	     -2.56359792802114320000	      3.38172477968455530000	      0.00000000000001661885	      0.00000000000019771153	     19.10430664665290800000	     -3.83807647509615000000	     11.47603741219536200000	    -47.33245475519535700000	      3.33989630944826480000	     -0.00000000000084748940	      0.00000000000024179940	     -3.04309650352891840000	     -1.21008012133614580000	      3.20473303973772960000	      0.38941626398510459000	      0.00173924958445080740	      0.05014038695637469000	     -9.70828685313482080000	     20.85472401296209800000	     -9.40424500808085460000	    -15.17325261383315100000	    -10.65850264734316800000	     -8.08291996318833130000	    -17.31844015264045900000	     32.49028609180317800000	     -0.00000000000017744090	      0.00000000000159787093	     76.62097610785940600000	     30.56465924528248100000	     57.86220609890405300000	    158.22228294848384000000	     67.05591175359838000000	     -0.00000000000132248573	      0.00000000000026993131	     -3.30695877893725540000	    -26.14804103893708400000	      7.58397929467182590000
      1.30232999999996730000	      0.75687157410231332000	      0.88507507339097435000	     -0.26067207583010332000	     -4.64802637551035680000	      0.70411436199060284000	      2.23304520379812170000	      5.55626074306969550000	      3.22818878629743320000	      3.11137059599676570000	     -2.57225143744519210000	      3.39796395283178710000	      0.00000000000001652980	      0.00000000000019851747	     19.14254876061070500000	     -3.82282004067060430000	     11.50496459377001000000	    -47.25308958989911200000	      3.37326199333239570000	     -0.00000000000084815087	      0.00000000000024193455	     -3.04474116620620230000	     -1.22313210883471070000	      3.20850891753360210000	      0.38945107076208774000	      0.00154163616918783350	      0.05005155208175554600	     -9.73615811536593330000	     20.79530716246474100000	     -9.49646254588714990000	    -15.16215593916541200000	    -10.61075000165827300000	     -7.90934628896214150000	    -17.29523462231875500000	     32.46611438264642400000	     -0.00000000000017860445	      0.00000000000162482843	     76.34736766530878100000	     30.46088614166522000000	     57.84471910274955800000	    159.23713370214048000000	     66.40677380876495300000	     -0.00000000000132302550	      0.00000000000026959675	     -3.27189058706396760000	    -26.05965755353432900000	      7.51987576042695860000
